HIERARCHY
ROOT Hips
{
  OFFSET 59.8814 91.7938 21.5984
  CHANNELS 6 Xposition Yposition Zposition Zrotation Xrotation Yrotation
  JOINT spine
  {
    OFFSET 0 6.84637 0.3937
    CHANNELS 3 Zrotation Xrotation Yrotation
    JOINT spine1
    {
      OFFSET 0 9.49621 0
      CHANNELS 3 Zrotation Xrotation Yrotation
      JOINT spine2
      {
        OFFSET 0 9.09909 0
        CHANNELS 3 Zrotation Xrotation Yrotation
        JOINT Neck
        {
          OFFSET 0 23.3612 1.11378
          CHANNELS 3 Zrotation Xrotation Yrotation
          JOINT Head
          {
            OFFSET 0 7.05802 0
            CHANNELS 3 Zrotation Xrotation Yrotation
            End Site
            {
              OFFSET 0 17.0844 -5.63419
            }
          }
        }
        JOINT RightShoulder
        {
          OFFSET -3.83136 9.82631 -0.533491
          CHANNELS 3 Zrotation Xrotation Yrotation
          JOINT RightArm
          {
            OFFSET 0 12.8881 0
            CHANNELS 3 Zrotation Xrotation Yrotation
            JOINT RightArmRoll
            {
              OFFSET 0 6.50617 0
              CHANNELS 3 Zrotation Xrotation Yrotation
              JOINT RightForeArm
              {
                OFFSET 0 18.9501 0
                CHANNELS 3 Zrotation Xrotation Yrotation
                JOINT RightForeArmRoll
                {
                  OFFSET 0 7.30092 0
                  CHANNELS 3 Zrotation Xrotation Yrotation
                  JOINT RightHand
                  {
                    OFFSET 0 14.6514 0
                    CHANNELS 3 Zrotation Xrotation Yrotation
                    End Site
                    {
                      OFFSET 0 0 0
                    }
                  }
                }
              }
            }
          }
        }
        JOINT LeftShoulder
        {
          OFFSET 3.83136 9.82631 -0.533491
          CHANNELS 3 Zrotation Xrotation Yrotation
          JOINT LeftArm
          {
            OFFSET 0 12.8881 0
            CHANNELS 3 Zrotation Xrotation Yrotation
            JOINT LeftArmRoll
            {
              OFFSET 0 6.50617 0
              CHANNELS 3 Zrotation Xrotation Yrotation
              JOINT LeftForeArm
              {
                OFFSET 0 18.9501 0
                CHANNELS 3 Zrotation Xrotation Yrotation
                JOINT LeftForeArmRoll
                {
                  OFFSET 0 7.30093 0
                  CHANNELS 3 Zrotation Xrotation Yrotation
                  JOINT LeftHand
                  {
                    OFFSET 0 14.6514 0
                    CHANNELS 3 Zrotation Xrotation Yrotation
                    End Site
                    {
                      OFFSET 0 0 0
                    }
                  }
                }
              }
            }
          }
        }
      }
    }
  }
  JOINT RightUpLeg
  {
    OFFSET -6.06837 -1.11278 -0.933477
    CHANNELS 3 Zrotation Xrotation Yrotation
    JOINT RightUpLegRoll
    {
      OFFSET 0 17.1796 0
      CHANNELS 3 Zrotation Xrotation Yrotation
      JOINT RightLeg
      {
        OFFSET 0 -21.2743 0
        CHANNELS 3 Zrotation Xrotation Yrotation
        JOINT RightLegRoll
        {
          OFFSET 0 21.3439 0
          CHANNELS 3 Zrotation Xrotation Yrotation
          JOINT RightFoot
          {
            OFFSET 0 17.7652 0
            CHANNELS 3 Zrotation Xrotation Yrotation
            JOINT RightToeBase
            {
              OFFSET 0 14.8508 0
              CHANNELS 3 Zrotation Xrotation Yrotation
              End Site
              {
                OFFSET 0.0062947 7.19213 -0.829005
              }
            }
          }
        }
      }
    }
  }
  JOINT LeftUpLeg
  {
    OFFSET 6.06837 -1.11278 -0.933477
    CHANNELS 3 Zrotation Xrotation Yrotation
    JOINT LeftUpLegRoll
    {
      OFFSET 0 17.1797 0
      CHANNELS 3 Zrotation Xrotation Yrotation
      JOINT LeftLeg
      {
        OFFSET 0 21.2742 0
        CHANNELS 3 Zrotation Xrotation Yrotation
        JOINT LeftLegRoll
        {
          OFFSET 0 21.5412 0
          CHANNELS 3 Zrotation Xrotation Yrotation
          JOINT LeftFoot
          {
            OFFSET 0 17.5679 0
            CHANNELS 3 Zrotation Xrotation Yrotation
            JOINT LeftToeBase
            {
              OFFSET 0 14.8508 0
              CHANNELS 3 Zrotation Xrotation Yrotation
              End Site
              {
                OFFSET -0.0282102 7.19214 -0.829004
              }
            }
          }
        }
      }
    }
  }
}
MOTION
Frames: 8
Frame Time: 0.00208333
59.2174 115.168 18.6893 -1.04555 3.08895 -3.84534 0.403991 -2.66855 -0.402043 0.791855 -1.33718 -0.838124 0.801848 0.30773 -0.851359 -10.8786 12.3229 2.80912 8.54689 2.16337 0.194286 61.5168 2.17179 0.948915 100.46 -3.25378 18.4109 -1.91944e-007 4.49504e-008 -6.57342e-006 8.59562 21.2416 -2.95231 2.40617e-006 -3.27888e-006 -3 8.02909 -4.95142 0.697663 -47.0864 -9.49187 5.79646 -118.886 1.25734 -15.8921 4.66715e-007 -6.47622e-006 9.93736e-008 -14.3388 16.5811 2.7712 -1.38358e-006 -2.11818e-006 3.01082 -8.03016 -4.95139 -0.697656 174.206 14.6402 -0.145962 180 7.01546e-015 178.918 -177.952 19.9274 178.888 1.35771e-006 1.24203e-006 0.101408 -17.6493 66.3456 18.2612 8.13649 25.2326 -3.48773 -172.473 5.06833 -3.54943 4.54188e-006 -4.6773e-006 -1.17329 -3.26703 -18.0191 0.0996655 -4.22802e-006 -2.08559e-006 -0.248265 18.3884 67.6887 -19.2847 -8.13649 25.2327 3.48774 
59.2223 115.478 18.6689 -0.982257 2.9565 -3.83063 0.438488 -2.61725 -0.39666 0.861465 -1.23474 -0.830827 0.871393 0.410148 -0.845244 -11.8419 12.0098 2.9579 9.19406 2.34083 0.119662 60.6771 1.96104 0.922646 101.148 -3.19069 18.4162 -1.91944e-007 4.49504e-008 -6.57342e-006 8.49667 21.1518 -2.93072 2.40617e-006 -3.27888e-006 -3 8.02909 -4.95142 0.697663 -47.718 -9.32716 5.70078 -118.347 1.2698 -15.8833 4.66715e-007 -6.47622e-006 9.93736e-008 -14.403 16.6957 2.79519 -1.38358e-006 -2.11818e-006 3.01081 -8.03016 -4.95139 -0.697656 174.097 14.6989 -0.0841088 180 7.01546e-015 178.917 -177.91 20.2742 178.861 1.35771e-006 1.24203e-006 0.106617 -17.6573 66.3545 18.2675 8.13649 25.2326 -3.48773 -172.553 5.17301 -3.56523 4.54188e-006 -4.6773e-006 -1.17739 -3.2952 -18.4981 0.100482 -4.22802e-006 -2.08559e-006 -0.255922 18.3831 67.6853 -19.2824 -8.13649 25.2327 3.48774 
59.2303 115.812 18.7577 -0.910551 2.80509 -3.80727 0.477004 -2.56279 -0.389017 0.939195 -1.126 -0.81946 0.949016 0.518861 -0.835197 -12.9098 11.7286 3.11272 9.91271 2.47761 0.0292389 59.7232 1.72012 0.890368 101.941 -3.13629 18.4214 -1.91944e-007 4.49504e-008 -6.57342e-006 8.38633 21.0591 -2.90781 2.40617e-006 -3.27888e-006 -3 8.02909 -4.95142 0.697663 -48.437 -9.11836 5.57618 -117.74 1.28215 -15.8968 4.66715e-007 -6.47622e-006 9.93736e-008 -14.4582 16.847 2.82385 -1.38358e-006 -2.11818e-006 3.01081 -8.03016 -4.95139 -0.697656 173.975 14.7334 -0.0152502 180 7.01545e-015 178.915 -177.864 20.6188 178.834 1.35771e-006 1.24203e-006 0.111723 -17.6648 66.3633 18.2736 8.13649 25.2326 -3.48773 -172.652 5.26064 -3.56394 4.54188e-006 -4.6773e-006 -1.18181 -3.3121 -18.979 0.102336 -4.22802e-006 -2.08559e-006 -0.263531 18.3775 67.6816 -19.2799 -8.13649 25.2327 3.48774 
59.2668 116.117 18.7416 -0.83175 2.63917 -3.7767 0.518716 -2.50609 -0.379336 1.02338 -1.01279 -0.804383 1.03305 0.632034 -0.821546 -14.0608 11.4773 3.27155 10.688 2.57833 -0.0744353 58.6765 1.45385 0.852545 102.817 -3.08974 18.4265 -1.91944e-007 4.49504e-008 -6.57342e-006 8.26703 20.9638 -2.88387 2.40617e-006 -3.27888e-006 -3 8.02909 -4.95142 0.697663 -49.2259 -8.87238 5.42725 -117.079 1.29444 -15.9297 4.66715e-007 -6.47622e-006 9.93736e-008 -14.5054 17.0286 2.85634 -1.38358e-006 -2.11818e-006 3.01081 -8.03016 -4.95139 -0.697656 173.844 14.7484 0.0590941 180 7.01545e-015 178.914 -177.815 20.9597 178.806 1.35771e-006 1.24203e-006 0.116714 -17.6719 66.372 18.2795 8.13649 25.2326 -3.48773 -172.767 5.33511 -3.54798 4.54188e-006 -4.6773e-006 -1.18647 -3.31918 -19.4604 0.105078 -4.22802e-006 -2.08559e-006 -0.27109 18.3716 67.6777 -19.2774 -8.13649 25.2327 3.48774 
59.3625 116.42 18.6686 -0.74719 2.4632 -3.74031 0.562801 -2.44808 -0.367843 1.11234 -0.896962 -0.78595 1.12184 0.747833 -0.804621 -15.2732 11.2537 3.43235 11.5049 2.64759 -0.188811 57.5588 1.16705 0.809638 103.758 -3.05017 18.4313 -1.91944e-007 4.49504e-008 -6.57342e-006 8.14123 20.8666 -2.85921 2.40617e-006 -3.27888e-006 -3 8.02909 -4.95142 0.697663 -50.0674 -8.59612 5.25856 -116.376 1.30674 -15.979 4.66715e-007 -6.47622e-006 9.93736e-008 -14.5455 17.2344 2.89181 -1.38358e-006 -2.11818e-006 3.01081 -8.03016 -4.95139 -0.697656 173.706 14.7483 0.137406 180 7.01544e-015 178.912 -177.765 21.296 178.778 1.35771e-006 1.24203e-006 0.121578 -17.6785 66.3804 18.2852 8.13649 25.2326 -3.48773 -172.895 5.40032 -3.51979 4.54188e-006 -4.6773e-006 -1.1913 -3.31786 -19.9414 0.108557 -4.22802e-006 -2.08559e-006 -0.278594 18.3656 67.6737 -19.2749 -8.13649 25.2327 3.48774 
59.3182 116.707 18.6686 -0.658223 2.28163 -3.69953 0.60844 -2.38967 -0.354759 1.20442 -0.780338 -0.76452 1.21371 0.864424 -0.784749 -16.5256 11.0559 3.59308 12.3486 2.69001 -0.311336 56.3916 0.864538 0.762105 104.744 -3.01672 18.4356 -1.91944e-007 4.49504e-008 -6.57342e-006 8.01137 20.7678 -2.83415 2.40617e-006 -3.27888e-006 -3 8.02909 -4.95142 0.697663 -50.9443 -8.29653 5.07468 -115.643 1.31909 -16.0416 4.66715e-007 -6.47622e-006 9.93736e-008 -14.5794 17.4581 2.92943 -1.38358e-006 -2.11818e-006 3.01081 -8.03016 -4.95139 -0.697656 173.563 14.7378 0.218173 180 7.01544e-015 178.91 -177.713 21.6263 178.75 1.35771e-006 1.24203e-006 0.126304 -17.6847 66.3887 18.2907 8.13649 25.2326 -3.48773 -173.032 5.46018 -3.48181 4.54188e-006 -4.6773e-006 -1.19623 -3.30959 -20.4207 0.112622 -4.22802e-006 -2.08559e-006 -0.286039 18.3597 67.6697 -19.2724 -8.13649 25.2327 3.48774 
59.4086 117.022 18.6752 -0.566229 2.09892 -3.65575 0.654812 -2.33179 -0.34031 1.29796 -0.664756 -0.740449 1.30702 0.979971 -0.762259 -17.7962 10.8817 3.75172 13.2041 2.71018 -0.43946 55.1965 0.551134 0.7104 105.755 -2.98854 18.4393 -1.91944e-007 4.49504e-008 -6.57342e-006 7.87987 20.668 -2.80898 2.40617e-006 -3.27888e-006 -3 8.02909 -4.95142 0.697663 -51.8396 -7.98056 4.88011 -114.893 1.33155 -16.1145 4.66715e-007 -6.47622e-006 9.93736e-008 -14.6078 17.6935 2.96832 -1.38358e-006 -2.11818e-006 3.01081 -8.03016 -4.95139 -0.697656 173.417 14.7214 0.299887 180 7.01544e-015 178.909 -177.661 21.9496 178.721 1.35771e-006 1.24203e-006 0.13088 -17.6907 66.3967 18.296 8.13649 25.2326 -3.48773 -173.177 5.51856 -3.43645 4.54188e-006 -4.6773e-006 -1.20117 -3.29582 -20.8971 0.117119 -4.22802e-006 -2.08559e-006 -0.293421 18.3538 67.6658 -19.2699 -8.13649 25.2327 3.48774 
59.4028 117.295 18.655 -0.472621 1.91953 -3.61039 0.7011 -2.27535 -0.324718 1.39131 -0.552053 -0.714092 1.40011 1.09264 -0.737478 -19.0637 10.7292 3.90624 14.0565 2.71273 -0.57063 53.9953 0.231662 0.654976 106.771 -2.96476 18.4421 -1.91944e-007 4.49504e-008 -6.57342e-006 7.74918 20.5676 -2.78402 2.40617e-006 -3.27888e-006 -3 8.02909 -4.95142 0.697663 -52.7364 -7.65518 4.67931 -114.139 1.34418 -16.1947 4.66715e-007 -6.47622e-006 9.93736e-008 -14.6317 17.9342 3.00761 -1.38358e-006 -2.11818e-006 3.01081 -8.03016 -4.95139 -0.697656 173.272 14.7037 0.381048 180 7.01543e-015 178.907 -177.607 22.2645 178.693 1.35771e-006 1.24203e-006 0.135293 -17.6964 66.4045 18.3011 8.13649 25.2326 -3.48773 -173.326 5.57938 -3.38617 4.54188e-006 -4.6773e-006 -1.20607 -3.27801 -21.3696 0.121891 -4.22802e-006 -2.08559e-006 -0.300736 18.3483 67.662 -19.2676 -8.13649 25.2327 3.48774 
